<svg xmlns="http://www.w3.org/2000/svg" viewBox="0 0 259.2 171.7"><defs><style>.cls-1,.cls-2{fill:none;stroke:#084b7c;stroke-miterlimit:10}.cls-1{stroke-width:.25px}.cls-3{fill:#084b7c}</style></defs><title>Asset 12</title><g id="Layer_2" data-name="Layer 2"><g id="Layer_1-2" data-name="Layer 1"><line x1="179.07" x2="127.27" y1="104.76" y2="88.68" class="cls-1"/><line x1="126.17" x2="154.21" y1="75.49" y2="68.62" class="cls-1"/><polyline points="126.89 77.93 166.99 75.45 158.99 46.8 105.08 13.99 49.64 53.55 98.47 46.92 102.67 67.22" class="cls-1"/><polyline points="124.39 72.17 158.99 46.8 175.2 31.17 190.9 86.95 166.99 75.45 145.1 94.1 148.45 131.41 123.41 96.03" class="cls-1"/><line x1="114.4" x2="119.19" y1="101.38" y2="120.94" class="cls-1"/><line x1="92.39" x2="62.11" y1="88.82" y2="110.85" class="cls-1"/><polyline points="103.58 100.93 102.37 149.46 62.11 110.85 64.38 82.4 49.64 53.93" class="cls-1"/><polyline points="129.64 49.23 158.77 46.97 158.77 35.6" class="cls-1"/><line x1="110.47" x2="116.75" y1="66.11" y2="50.21" class="cls-1"/><line x1="93.63" x2="77.3" y1="74.48" y2="64.71" class="cls-1"/><line x1="97.13" x2="88.67" y1="96.75" y2="117.37" class="cls-1"/><polyline points="108.63 36.05 105.08 13.99 108.63 4.93" class="cls-1"/><polyline points="33.93 47.41 49.64 53.93 26.82 70.7 .95 58.16" class="cls-1"/><line x1="105.08" x2="88.67" y1="13.99" y2=".95" class="cls-1"/><polyline points="169.89 22.09 175.2 31.17 192.74 34.65" class="cls-1"/><polyline points="49.64 53.93 41.73 99.83 62.11 110.85 56.57 136.2" class="cls-1"/><polyline points="146.18 170.3 148.45 131.41 102.37 149.46 95.94 163.18" class="cls-1"/><polyline points="189.64 117.98 227.8 105.54 190.9 86.95 196.92 77.93" class="cls-1"/><polyline points="168.16 139.32 148.45 131.41 198.18 128.51" class="cls-1"/><polyline points="128.6 159.62 102.37 149.46 67.5 147.4 56.57 136.2 49.64 134.37" class="cls-1"/><polyline points="166.99 75.45 225.23 44.7 238.83 56.83" class="cls-1"/><polyline points="190.28 52.94 184.99 65.95 180.02 64.11" class="cls-1"/><polyline points="229.93 34.65 225.23 44.7 225.23 50.63" class="cls-1"/><polyline points="236.31 92.59 227.8 105.54 232.06 120.94" class="cls-1"/><line x1="227.8" x2="257.8" y1="105.54" y2="110.85" class="cls-1"/><polyline points="223.15 82.4 190.9 86.95 179.07 104.76 198.18 128.51 194.09 143.45" class="cls-1"/><polyline points="13.42 78.94 26.82 70.7 64.38 82.4" class="cls-1"/><polyline points="14.82 115.97 41.73 99.83 18.16 94.56" class="cls-1"/><line x1="62.11" x2="55.69" y1="110.85" y2="113.12" class="cls-1"/><line x1="41.73" x2="41.73" y1="99.83" y2="113.12" class="cls-1"/><line x1="67.5" x2="45.64" y1="147.4" y2="156.06" class="cls-1"/><line x1="25.66" x2="26.82" y1="63.24" y2="70.7" class="cls-1"/><line x1="207.02" x2="198.18" y1="129.39" y2="128.51" class="cls-1"/><polyline points="45.6 76.55 18.16 94.56 4.74 89.97" class="cls-1"/><line x1="16.22" x2="18.16" y1="101.24" y2="94.56" class="cls-1"/><line x1="148.45" x2="155.75" y1="131.41" y2="122.94" class="cls-1"/><path d="M118.59,88.4c0-2.79-1.79-4.67-4.84-5a4.37,4.37,0,0,0,3.85-4.59c0-2.78-1.85-4.52-5-4.86V71.07h-1.2v2.78H108V71.07h-1.2v2.78h-3.59V93.75h3.59v2.77H108V93.75h3.34v2.77h1.2V93.71C116.4,93.4,118.59,91.5,118.59,88.4ZM104.44,75h6.92c3.19,0,5,1.42,5,3.9s-1.85,4-5,4h-6.92Zm6.92,17.57h-6.92V84h6.92c3.85,0,6,1.54,6,4.22S115.2,92.59,111.36,92.59Z" class="cls-2"/><path d="M109.8,65.14A18.66,18.66,0,1,0,128.46,83.8,18.66,18.66,0,0,0,109.8,65.14Zm0,36.2A17.54,17.54,0,1,1,127.34,83.8,17.54,17.54,0,0,1,109.8,101.34Z" class="cls-2"/><circle cx="166.99" cy="75.37" r="2.9" class="cls-3"/><circle cx="49.64" cy="53.93" r="2.9" class="cls-3"/><circle cx="179.07" cy="104.76" r="1.4" class="cls-3"/><circle cx="198.18" cy="128.51" r="1.4" class="cls-3"/><circle cx="257.8" cy="111.16" r="1.4" class="cls-3"/><circle cx="192.74" cy="34.65" r="1.4" class="cls-3"/><circle cx="229.93" cy="34.65" r="1.4" class="cls-3"/><circle cx="119.19" cy="120.94" r="1.4" class="cls-3"/><circle cx="33.93" cy="47.41" r="1.4" class="cls-3"/><circle cx="64.38" cy="82.4" r="1.4" class="cls-3"/><circle cx="18.16" cy="94.56" r="1.4" class="cls-3"/><circle cx="154.21" cy="68.62" r="1.4" class="cls-3"/><circle cx="227.68" cy="105.83" r="2.57" class="cls-3"/><circle cx="116.75" cy="50.21" r="1.4" class="cls-3"/><circle cx="108.63" cy="36.05" r="1.4" class="cls-3"/><circle cx="108.63" cy="4.93" r="1.4" class="cls-3"/><circle cx="77.3" cy="64.71" r="1.4" class="cls-3"/><circle cx="26.69" cy="70.7" r="1.4" class="cls-3"/><circle cx="41.73" cy="99.83" r="1.4" class="cls-3"/><circle cx="14.82" cy="115.97" r="1.4" class="cls-3"/><circle cx="45.64" cy="156.06" r="1.2" class="cls-3"/><circle cx="56.57" cy="136.2" r="1.2" class="cls-3"/><circle cx="13.42" cy="78.94" r="1.2" class="cls-3"/><circle cx="25.66" cy="63.24" r="1.2" class="cls-3"/><circle cx="55.69" cy="113.12" r=".72" class="cls-3"/><circle cx="16.22" cy="101.13" r=".72" class="cls-3"/><circle cx="95.94" cy="163.18" r="1.4" class="cls-3"/><circle cx="128.87" cy="159.69" r="1.4" class="cls-3"/><circle cx="146.13" cy="170.3" r="1.4" class="cls-3"/><circle cx="168.16" cy="139.32" r="1.4" class="cls-3"/><circle cx="88.67" cy="117.37" r="1.4" class="cls-3"/><circle cx="67.38" cy="147.4" r="1.4" class="cls-3"/><circle cx="129.64" cy="49.23" r="1.4" class="cls-3"/><circle cx="238.83" cy="56.83" r="1.4" class="cls-3"/><circle cx="223.15" cy="82.4" r="1.4" class="cls-3"/><circle cx="158.81" cy="36.05" r=".95" class="cls-3"/><circle cx="41.79" cy="113.12" r=".95" class="cls-3"/><circle cx="49.64" cy="134.37" r=".95" class="cls-3"/><circle cx="4.74" cy="90.03" r=".95" class="cls-3"/><circle cx=".95" cy="58.16" r=".95" class="cls-3"/><circle cx="169.89" cy="22.09" r=".95" class="cls-3"/><circle cx="225.23" cy="50.63" r=".95" class="cls-3"/><circle cx="236.31" cy="92.59" r=".95" class="cls-3"/><circle cx="207.02" cy="129.39" r=".95" class="cls-3"/><circle cx="155.75" cy="122.94" r=".95" class="cls-3"/><circle cx="232.06" cy="120.94" r="1.25" class="cls-3"/><circle cx="194.11" cy="143.45" r="1.25" class="cls-3"/><circle cx="190.28" cy="52.94" r="1.25" class="cls-3"/><circle cx="180.02" cy="64.19" r=".95" class="cls-3"/><circle cx="196.57" cy="78.27" r=".95" class="cls-3"/><circle cx="88.67" cy=".95" r=".95" class="cls-3"/><circle cx="148.47" cy="131.24" r="1.85" class="cls-3"/><circle cx="102.07" cy="149.24" r="1.85" class="cls-3"/><circle cx="190.9" cy="86.95" r="1.85" class="cls-3"/><circle cx="189.68" cy="117.84" r="1.85" class="cls-3"/><circle cx="105.1" cy="14.23" r="1.85" class="cls-3"/><circle cx="98.55" cy="46.97" r="1.85" class="cls-3"/><circle cx="184.99" cy="65.81" r="1.85" class="cls-3"/><circle cx="45.64" cy="76.86" r="1.85" class="cls-3"/><circle cx="175.21" cy="31.17" r="1.85" class="cls-3"/><circle cx="225.23" cy="45.12" r="1.85" class="cls-3"/><circle cx="145.34" cy="94.56" r="2.26" class="cls-3"/><circle cx="62.11" cy="110.85" r="2.26" class="cls-3"/><circle cx="158.81" cy="46.97" r="2.26" class="cls-3"/><path d="M33.38,47" class="cls-2"/></g></g></svg>