<svg xmlns="http://www.w3.org/2000/svg" xmlns:xlink="http://www.w3.org/1999/xlink" id="Layer_1" x="0" y="0" enable-background="new 0 0 103.9 103.9" version="1.1" viewBox="0 0 103.9 103.9" xml:space="preserve"><style type="text/css">.st0{fill:#00aee6}.st1{fill:#123962}.st2{fill:#b1d4e5}.st3{fill:#2754ba}.st4{fill:#799eb2}</style><g><path d="M38.6,52L17,73.5l27.1,27.1c4.4,4.4,11.4,4.4,15.8,0l27.1-27.1L65.3,52L52,38.6L38.6,52z" class="st0"/><path d="M17,30.4L3.3,44.1c-4.4,4.4-4.4,11.4,0,15.8L17,73.5L38.6,52L52,38.6L30.4,17L17,30.4z" class="st1"/><path d="M73.5,60.1l13.4,13.4l13.7-13.7c4.4-4.4,4.4-11.4,0-15.8l-5.5-5.5L73.5,60.1z" class="st2"/><polygon points="65.3 52 65.3 52 52 38.6 73.5 17 73.5 17 52 38.6" class="st2"/><polygon points="52 38.6 65.3 52 73.5 60.1 95.1 38.6 86.9 30.4 73.5 17" class="st3"/><path d="M73.5,17L59.8,3.3c-4.4-4.4-11.4-4.4-15.8,0L30.4,17L52,38.6L73.5,17z" class="st4"/></g></svg>