<svg xmlns="http://www.w3.org/2000/svg" xmlns:xlink="http://www.w3.org/1999/xlink" width="400" height="95" version="1.1" viewBox="0 0 400 95"><title>Artboard 4</title><desc>Created with Sketch.</desc><defs><rect id="path-1" width="400" height="97" x="0" y="0"/><rect id="path-2" width="369" height="85" x="19" y="0"/></defs><g id="SFOX" fill="none" fill-rule="evenodd" stroke="none" stroke-width="1"><g id="Artboard-4"><g id="Group-18"><g id="Rectangle-2"><use fill="#D8D8D8" fill-rule="evenodd" xlink:href="#path-1"/><rect width="399" height="96" x=".5" y=".5" stroke="#DDD" stroke-width="1"/></g><g id="Rectangle-7"><use fill="#FFF" fill-rule="evenodd" xlink:href="#path-2"/><rect width="368" height="84" x="19.5" y=".5" stroke="#D8D8D8" stroke-width="1"/></g><g id="Group-15" stroke="#979797" stroke-linecap="square" transform="translate(34.000000, 58.000000)"><path id="Line-5" d="M1.5,2.5 L1.5,7.5"/><path id="Line-5-Copy" d="M4.5,0.5 L4.5,3.5"/><path id="Line-5-Copy-2" d="M4.5,6.5 L4.5,9.5"/></g><text id="ROUTING-NUMBER" fill="#BBB9B9" font-family="Montserrat-Light, Montserrat" font-size="10" font-weight="300"><tspan x="56" y="48">ROUTING NUMBER</tspan></text><text id="ACCOUNT-NUMBER" fill="#BBB9B9" font-family="Montserrat-Light, Montserrat" font-size="10" font-weight="300"><tspan x="187" y="48">ACCOUNT NUMBER</tspan></text><text id="0" fill="#D8D8D8" font-family="Montserrat-Regular, Montserrat" font-size="17" font-weight="normal"><tspan x="52" y="69">000000000</tspan></text><g id="Group-15-Copy" stroke="#979797" stroke-linecap="square" transform="translate(167.000000, 58.000000)"><path id="Line-5" d="M1.5,2.5 L1.5,7.5"/><path id="Line-5-Copy" d="M4.5,0.5 L4.5,3.5"/><path id="Line-5-Copy-2" d="M4.5,6.5 L4.5,9.5"/></g><g id="Group-15-Copy-2" stroke="#979797" stroke-linecap="square" transform="translate(297.000000, 58.000000)"><path id="Line-5" d="M1.5,2.5 L1.5,7.5"/><path id="Line-5-Copy" d="M4.5,0.5 L4.5,3.5"/><path id="Line-5-Copy-2" d="M4.5,6.5 L4.5,9.5"/></g><text id="000000000-copy" fill="#D8D8D8" font-family="Montserrat-Regular, Montserrat" font-size="17" font-weight="normal"><tspan x="183" y="69">000000000</tspan></text><g id="Group-17" stroke="#D8D8D8" stroke-linecap="square" transform="translate(35.000000, 20.000000)"><g id="Group-14"><path id="Line-4" d="M0.567375887,1.5 L159.432624,1.5"/></g><g id="Group-14-Copy" transform="translate(170.000000, 0.000000)"><path id="Line-4" d="M0.567375887,1.5 L159.432624,1.5"/></g></g></g></g></g></svg>