<svg xmlns="http://www.w3.org/2000/svg" xmlns:xlink="http://www.w3.org/1999/xlink" width="45" height="19" version="1.1" viewBox="0 0 45 19"><title>carbon</title><desc>Created with Sketch.</desc><g id="Page-2" fill="none" fill-rule="evenodd" stroke="none" stroke-width="1"><g id="2" fill-rule="nonzero" transform="translate(-773.000000, -371.000000)"><g id="modal" transform="translate(570.000000, 235.000000)"><g id="Group-8"><g id="connect" transform="translate(61.000000, 82.000000)"><g id="carbon" transform="translate(164.284271, 63.284271) rotate(-135.000000) translate(-164.284271, -63.284271) translate(144.284271, 43.284271)"><polygon id="Shape" fill="#B9BBBC" points="32.796 15.017 39.589 8.224 31.365 0 24.573 6.792"/><rect id="Rectangle-path" width="15.017" height="2.048" x="21.16" y="10.239" fill="#444242" transform="translate(28.668156, 11.262490) rotate(-135.000000) translate(-28.668156, -11.262490)"/><path id="Shape" fill="#59595A" d="M29.0621079,13.5094388 C31.8597781,16.3083333 34.1287567,18.5766692 34.1287567,18.5766692 L14.6834041,38.0208656 C12.3178187,40.3871719 8.13155439,40.0360833 5.33320145,37.2377862 L2.35144929,34.2548135 C-0.446647628,31.4566017 -0.797828547,27.2698236 1.56843958,24.9048828 L21.0124267,5.46060107 C21.0124267,5.46060107 23.280808,7.72893704 26.079673,10.5264661 L29.0621079,13.5094388 Z"/><polygon id="Shape" fill="#59595A" points="32.047 4.778 30.033 2.764 31.432 1.365 33.446 3.38"/><polygon id="Shape" fill="#59595A" points="36.825 10.239 34.811 8.225 36.21 6.826 38.224 8.84"/><polygon id="Shape" fill="#FFF" points="29.336 10.921 28.752 10.33 29.678 9.393 28.668 8.371 31.143 5.866 32.152 6.888 34.91 4.095 35.494 4.687 32.152 8.07 31.143 7.048 29.836 8.371 30.845 9.393"/><path id="Shape" fill="#5B5B5F" d="M33.0683494,16.9751673 L34.2787217,15.75546 L33.2104191,14.678918 L39.5893578,8.25069575 L35.4659148,4.0954508 L4.0954508,35.708031 L5.58962048,37.2143278 C8.39415019,40.0404873 12.5898683,40.3951687 14.9607475,38.0052284 L34.449616,18.3668283 C34.4495304,18.3669145 33.9241034,17.8375213 33.0683494,16.9751673 Z" opacity=".3"/></g></g></g></g></g></g></svg>