<svg xmlns="http://www.w3.org/2000/svg" xmlns:xlink="http://www.w3.org/1999/xlink" id="Layer_1" x="0" y="0" enable-background="new 0 0 79.7 73.4" version="1.1" viewBox="0 0 79.7 73.4" xml:space="preserve"><style type="text/css">.st0,.st1{fill:none;stroke:#094b7c;stroke-width:3;stroke-miterlimit:10}.st1{fill:#fff}</style><g><title>Asset 4</title><g id="Layer_2"><g id="Layer_1-2"><g><line x1="39.8" x2="39.8" y1="61.8" y2="11.6" class="st0"/></g><g><path d="M11.6,61.8V42.3c0-3.1,2.1-5.6,4.7-5.6h47.1c2.6,0,4.7,2.5,4.7,5.6v19.6" class="st0"/></g><g><path d="M33.5,1.5h12.6c2.1,0,3.8,1.7,3.8,3.8v12.6c0,2.1-1.7,3.8-3.8,3.8H33.5c-2.1,0-3.8-1.7-3.8-3.8V5.3 C29.8,3.2,31.5,1.5,33.5,1.5z" class="st1"/></g><g><path d="M33.5,51.7h12.6c2.1,0,3.8,1.7,3.8,3.8v12.6c0,2.1-1.7,3.8-3.8,3.8H33.5c-2.1,0-3.8-1.7-3.8-3.8V55.5 C29.8,53.4,31.5,51.7,33.5,51.7z" class="st1"/></g><g><path d="M61.8,51.7h12.6c2.1,0,3.8,1.7,3.8,3.8v12.6c0,2.1-1.7,3.8-3.8,3.8H61.8c-2.1,0-3.8-1.7-3.8-3.8V55.5 C58,53.4,59.7,51.7,61.8,51.7z" class="st1"/></g><g><path d="M5.3,51.7h12.6c2.1,0,3.8,1.7,3.8,3.8v12.6c0,2.1-1.7,3.8-3.8,3.8H5.3c-2.1,0-3.8-1.7-3.8-3.8V55.5 C1.5,53.4,3.2,51.7,5.3,51.7z" class="st1"/></g></g></g></g></svg>