<svg xmlns="http://www.w3.org/2000/svg" width="933.333" height="933.333" preserveAspectRatio="xMidYMid meet" version="1.0" viewBox="0 0 700 700"><metadata>Created by potrace 1.11, written by Peter Selinger 2001-2013</metadata><g fill="#000" stroke="none"><path d="M3344 6986 c-77 -18 -168 -54 -242 -97 -79 -47 -2913 -2873 -2976 -2969 -88 -134 -126 -263 -126 -423 0 -158 40 -288 125 -417 65 -97 2899 -2923 2977 -2969 238 -138 490 -148 738 -29 l105 50 1413 1411 c777 777 1440 1445 1472 1485 207 255 225 609 45 888 -44 68 -2822 2856 -2920 2931 -73 55 -148 94 -240 123 -90 28 -280 36 -371 16z" transform="translate(0.000000,700.000000) scale(0.100000,-0.100000)"/></g></svg>